<svg xmlns="http://www.w3.org/2000/svg" width="1200" height="700" viewBox="0 0 1200 700">
  <style>
    .title { font: 700 26px Arial, sans-serif; fill: #1f2937; }
    .node { fill: #eef2ff; stroke: #6366f1; stroke-width: 2; rx: 10; }
    .txt { font: 600 14px Arial, sans-serif; fill: #111827; }
    .line { stroke: #4b5563; stroke-width: 2; marker-end: url(#arrow); }
  </style>
  <defs>
    <marker id="arrow" markerWidth="10" markerHeight="8" refX="9" refY="4" orient="auto">
      <polygon points="0,0 10,4 0,8" fill="#4b5563" />
    </marker>
  </defs>

  <text class="title" x="24" y="44">Taskboard Schema A: Project-Centric</text>

  <rect class="node" x="40" y="90" width="180" height="52" /><text class="txt" x="68" y="122">projects</text>
  <rect class="node" x="300" y="90" width="200" height="52" /><text class="txt" x="330" y="122">project_stages</text>
  <rect class="node" x="580" y="90" width="160" height="52" /><text class="txt" x="635" y="122">tasks</text>

  <rect class="node" x="40" y="220" width="200" height="52" /><text class="txt" x="72" y="252">project_members</text>
  <rect class="node" x="300" y="220" width="140" height="52" /><text class="txt" x="348" y="252">labels</text>
  <rect class="node" x="520" y="220" width="170" height="52" /><text class="txt" x="560" y="252">task_labels</text>

  <rect class="node" x="40" y="350" width="190" height="52" /><text class="txt" x="72" y="382">task_comments</text>
  <rect class="node" x="280" y="350" width="230" height="52" /><text class="txt" x="300" y="382">task_checklist_items</text>
  <rect class="node" x="560" y="350" width="210" height="52" /><text class="txt" x="600" y="382">task_attachments</text>
  <rect class="node" x="820" y="350" width="170" height="52" /><text class="txt" x="860" y="382">task_activity</text>

  <line class="line" x1="220" y1="116" x2="300" y2="116" />
  <line class="line" x1="500" y1="116" x2="580" y2="116" />
  <line class="line" x1="130" y1="142" x2="130" y2="220" />
  <line class="line" x1="370" y1="142" x2="370" y2="220" />
  <line class="line" x1="660" y1="142" x2="660" y2="220" />

  <line class="line" x1="600" y1="142" x2="140" y2="350" />
  <line class="line" x1="620" y1="142" x2="390" y2="350" />
  <line class="line" x1="640" y1="142" x2="665" y2="350" />
  <line class="line" x1="660" y1="142" x2="905" y2="350" />

  <line class="line" x1="440" y1="246" x2="520" y2="246" />
  <line class="line" x1="610" y1="220" x2="370" y2="272" />
</svg>